<mxfile host="app.diagrams.net" modified="2024-02-29T19:00:00.221Z" agent="Mozilla/5.0 (X11; Linux x86_64) AppleWebKit/537.36 (KHTML, like Gecko) Chrome/114.0.0.0 Safari/537.36" etag="3ErbnqlCEkHtZFXGXpiT" version="24.0.0" type="google">
  <diagram name="Página-1" id="Ik6_lsNosGJMaM5q_Iqn">
    <mxGraphModel grid="1" page="1" gridSize="10" guides="1" tooltips="1" connect="1" arrows="1" fold="1" pageScale="1" pageWidth="827" pageHeight="1169" math="0" shadow="0">
      <root>
        <mxCell id="0" />
        <mxCell id="1" parent="0" />
        <mxCell id="uGKKmcF0VZXlykleHp-U-1" value="Usuario&lt;div&gt;&lt;br&gt;&lt;/div&gt;" style="rounded=1;whiteSpace=wrap;html=1;arcSize=22;" vertex="1" parent="1">
          <mxGeometry x="500" y="440" width="120" height="80" as="geometry" />
        </mxCell>
        <mxCell id="uGKKmcF0VZXlykleHp-U-3" value="Transaccion" style="rounded=1;whiteSpace=wrap;html=1;arcSize=22;" vertex="1" parent="1">
          <mxGeometry x="140" y="440" width="120" height="80" as="geometry" />
        </mxCell>
        <mxCell id="uGKKmcF0VZXlykleHp-U-4" value="Sesion" style="rounded=1;whiteSpace=wrap;html=1;arcSize=22;" vertex="1" parent="1">
          <mxGeometry x="318" y="120" width="120" height="80" as="geometry" />
        </mxCell>
        <mxCell id="uGKKmcF0VZXlykleHp-U-12" style="edgeStyle=orthogonalEdgeStyle;rounded=0;orthogonalLoop=1;jettySize=auto;html=1;exitX=1;exitY=0.5;exitDx=0;exitDy=0;entryX=0.5;entryY=1;entryDx=0;entryDy=0;" edge="1" parent="1" source="uGKKmcF0VZXlykleHp-U-9" target="uGKKmcF0VZXlykleHp-U-4">
          <mxGeometry relative="1" as="geometry" />
        </mxCell>
        <mxCell id="uGKKmcF0VZXlykleHp-U-9" value="" style="triangle;whiteSpace=wrap;html=1;rotation=-90;" vertex="1" parent="1">
          <mxGeometry x="360" y="280" width="36" height="40" as="geometry" />
        </mxCell>
        <mxCell id="uGKKmcF0VZXlykleHp-U-13" style="edgeStyle=orthogonalEdgeStyle;rounded=0;orthogonalLoop=1;jettySize=auto;html=1;exitX=0;exitY=0.25;exitDx=0;exitDy=0;entryX=0.75;entryY=0;entryDx=0;entryDy=0;" edge="1" parent="1" source="uGKKmcF0VZXlykleHp-U-10" target="uGKKmcF0VZXlykleHp-U-3">
          <mxGeometry relative="1" as="geometry" />
        </mxCell>
        <mxCell id="uGKKmcF0VZXlykleHp-U-10" value="" style="triangle;whiteSpace=wrap;html=1;rotation=-90;" vertex="1" parent="1">
          <mxGeometry x="340" y="316" width="36" height="40" as="geometry" />
        </mxCell>
        <mxCell id="uGKKmcF0VZXlykleHp-U-14" style="edgeStyle=orthogonalEdgeStyle;rounded=0;orthogonalLoop=1;jettySize=auto;html=1;exitX=0;exitY=0.75;exitDx=0;exitDy=0;" edge="1" parent="1" source="uGKKmcF0VZXlykleHp-U-11" target="uGKKmcF0VZXlykleHp-U-1">
          <mxGeometry relative="1" as="geometry" />
        </mxCell>
        <mxCell id="uGKKmcF0VZXlykleHp-U-11" value="" style="triangle;whiteSpace=wrap;html=1;rotation=-90;" vertex="1" parent="1">
          <mxGeometry x="379" y="316" width="36" height="40" as="geometry" />
        </mxCell>
        <mxCell id="uGKKmcF0VZXlykleHp-U-15" value="0:1" style="text;html=1;align=center;verticalAlign=middle;resizable=0;points=[];autosize=1;strokeColor=none;fillColor=none;" vertex="1" parent="1">
          <mxGeometry x="389" y="200" width="40" height="30" as="geometry" />
        </mxCell>
        <mxCell id="uGKKmcF0VZXlykleHp-U-16" value="0:1" style="text;html=1;align=center;verticalAlign=middle;resizable=0;points=[];autosize=1;strokeColor=none;fillColor=none;" vertex="1" parent="1">
          <mxGeometry x="570" y="410" width="40" height="30" as="geometry" />
        </mxCell>
        <mxCell id="uGKKmcF0VZXlykleHp-U-17" value="0:m&lt;span style=&quot;color: rgba(0, 0, 0, 0); font-family: monospace; font-size: 0px; text-align: start;&quot;&gt;%3CmxGraphModel%3E%3Croot%3E%3CmxCell%20id%3D%220%22%2F%3E%3CmxCell%20id%3D%221%22%20parent%3D%220%22%2F%3E%3CmxCell%20id%3D%222%22%20value%3D%220%3A1%22%20style%3D%22text%3Bhtml%3D1%3Balign%3Dcenter%3BverticalAlign%3Dmiddle%3Bresizable%3D0%3Bpoints%3D%5B%5D%3Bautosize%3D1%3BstrokeColor%3Dnone%3BfillColor%3Dnone%3B%22%20vertex%3D%221%22%20parent%3D%221%22%3E%3CmxGeometry%20x%3D%22550%22%20y%3D%22330%22%20width%3D%2240%22%20height%3D%2230%22%20as%3D%22geometry%22%2F%3E%3C%2FmxCell%3E%3C%2Froot%3E%3C%2FmxGraphModel%3E&lt;/span&gt;" style="text;html=1;align=center;verticalAlign=middle;resizable=0;points=[];autosize=1;strokeColor=none;fillColor=none;" vertex="1" parent="1">
          <mxGeometry x="260" y="410" width="40" height="30" as="geometry" />
        </mxCell>
        <mxCell id="uGKKmcF0VZXlykleHp-U-18" value="0:1" style="text;html=1;align=center;verticalAlign=middle;resizable=0;points=[];autosize=1;strokeColor=none;fillColor=none;" vertex="1" parent="1">
          <mxGeometry x="460" y="410" width="40" height="30" as="geometry" />
        </mxCell>
        <mxCell id="uGKKmcF0VZXlykleHp-U-19" value="0:m" style="text;html=1;align=center;verticalAlign=middle;resizable=0;points=[];autosize=1;strokeColor=none;fillColor=none;" vertex="1" parent="1">
          <mxGeometry x="180" y="410" width="40" height="30" as="geometry" />
        </mxCell>
        <mxCell id="uGKKmcF0VZXlykleHp-U-20" value="0:1" style="text;html=1;align=center;verticalAlign=middle;resizable=0;points=[];autosize=1;strokeColor=none;fillColor=none;" vertex="1" parent="1">
          <mxGeometry x="300" y="200" width="40" height="30" as="geometry" />
        </mxCell>
        <mxCell id="uGKKmcF0VZXlykleHp-U-26" style="edgeStyle=orthogonalEdgeStyle;rounded=0;orthogonalLoop=1;jettySize=auto;html=1;exitX=0;exitY=0.5;exitDx=0;exitDy=0;entryX=1;entryY=0.25;entryDx=0;entryDy=0;" edge="1" parent="1" source="uGKKmcF0VZXlykleHp-U-21" target="uGKKmcF0VZXlykleHp-U-1">
          <mxGeometry relative="1" as="geometry" />
        </mxCell>
        <mxCell id="uGKKmcF0VZXlykleHp-U-21" value="id" style="ellipse;whiteSpace=wrap;html=1;" vertex="1" parent="1">
          <mxGeometry x="690" y="330" width="90" height="50" as="geometry" />
        </mxCell>
        <mxCell id="uGKKmcF0VZXlykleHp-U-27" style="edgeStyle=orthogonalEdgeStyle;rounded=0;orthogonalLoop=1;jettySize=auto;html=1;exitX=0;exitY=0.5;exitDx=0;exitDy=0;entryX=1;entryY=0.5;entryDx=0;entryDy=0;" edge="1" parent="1" source="uGKKmcF0VZXlykleHp-U-22" target="uGKKmcF0VZXlykleHp-U-1">
          <mxGeometry relative="1" as="geometry" />
        </mxCell>
        <mxCell id="uGKKmcF0VZXlykleHp-U-22" value="dni" style="ellipse;whiteSpace=wrap;html=1;" vertex="1" parent="1">
          <mxGeometry x="690" y="400" width="90" height="50" as="geometry" />
        </mxCell>
        <mxCell id="uGKKmcF0VZXlykleHp-U-28" style="edgeStyle=orthogonalEdgeStyle;rounded=0;orthogonalLoop=1;jettySize=auto;html=1;" edge="1" parent="1" source="uGKKmcF0VZXlykleHp-U-23">
          <mxGeometry relative="1" as="geometry">
            <mxPoint x="620" y="470" as="targetPoint" />
          </mxGeometry>
        </mxCell>
        <mxCell id="uGKKmcF0VZXlykleHp-U-23" value="contraseña" style="ellipse;whiteSpace=wrap;html=1;" vertex="1" parent="1">
          <mxGeometry x="690" y="470" width="90" height="50" as="geometry" />
        </mxCell>
        <mxCell id="uGKKmcF0VZXlykleHp-U-30" style="edgeStyle=orthogonalEdgeStyle;rounded=0;orthogonalLoop=1;jettySize=auto;html=1;exitX=0;exitY=0.5;exitDx=0;exitDy=0;entryX=1;entryY=0.5;entryDx=0;entryDy=0;" edge="1" parent="1" source="uGKKmcF0VZXlykleHp-U-24" target="uGKKmcF0VZXlykleHp-U-1">
          <mxGeometry relative="1" as="geometry" />
        </mxCell>
        <mxCell id="uGKKmcF0VZXlykleHp-U-24" value="fecha_alta" style="ellipse;whiteSpace=wrap;html=1;" vertex="1" parent="1">
          <mxGeometry x="690" y="535" width="90" height="50" as="geometry" />
        </mxCell>
        <mxCell id="uGKKmcF0VZXlykleHp-U-25" value="fecha_inactivacion" style="ellipse;whiteSpace=wrap;html=1;" vertex="1" parent="1">
          <mxGeometry x="690" y="600" width="90" height="50" as="geometry" />
        </mxCell>
        <mxCell id="uGKKmcF0VZXlykleHp-U-31" style="edgeStyle=orthogonalEdgeStyle;rounded=0;orthogonalLoop=1;jettySize=auto;html=1;entryX=0.833;entryY=1.075;entryDx=0;entryDy=0;entryPerimeter=0;" edge="1" parent="1" source="uGKKmcF0VZXlykleHp-U-25" target="uGKKmcF0VZXlykleHp-U-1">
          <mxGeometry relative="1" as="geometry" />
        </mxCell>
        <mxCell id="uGKKmcF0VZXlykleHp-U-39" style="edgeStyle=orthogonalEdgeStyle;rounded=0;orthogonalLoop=1;jettySize=auto;html=1;entryX=0.5;entryY=1;entryDx=0;entryDy=0;" edge="1" parent="1" source="uGKKmcF0VZXlykleHp-U-32" target="uGKKmcF0VZXlykleHp-U-3">
          <mxGeometry relative="1" as="geometry" />
        </mxCell>
        <mxCell id="uGKKmcF0VZXlykleHp-U-32" value="fecha_transaccion" style="ellipse;whiteSpace=wrap;html=1;" vertex="1" parent="1">
          <mxGeometry x="228" y="670" width="90" height="50" as="geometry" />
        </mxCell>
        <mxCell id="uGKKmcF0VZXlykleHp-U-33" value="importe" style="ellipse;whiteSpace=wrap;html=1;" vertex="1" parent="1">
          <mxGeometry x="110" y="670" width="90" height="50" as="geometry" />
        </mxCell>
        <mxCell id="uGKKmcF0VZXlykleHp-U-34" value="identificador_usuario" style="ellipse;whiteSpace=wrap;html=1;" vertex="1" parent="1">
          <mxGeometry x="10" y="620" width="90" height="50" as="geometry" />
        </mxCell>
        <mxCell id="uGKKmcF0VZXlykleHp-U-35" value="identificador" style="ellipse;whiteSpace=wrap;html=1;" vertex="1" parent="1">
          <mxGeometry x="-10" y="550" width="90" height="50" as="geometry" />
        </mxCell>
        <mxCell id="uGKKmcF0VZXlykleHp-U-36" style="edgeStyle=orthogonalEdgeStyle;rounded=0;orthogonalLoop=1;jettySize=auto;html=1;entryX=0;entryY=0.413;entryDx=0;entryDy=0;entryPerimeter=0;" edge="1" parent="1" source="uGKKmcF0VZXlykleHp-U-35" target="uGKKmcF0VZXlykleHp-U-3">
          <mxGeometry relative="1" as="geometry" />
        </mxCell>
        <mxCell id="uGKKmcF0VZXlykleHp-U-37" style="edgeStyle=orthogonalEdgeStyle;rounded=0;orthogonalLoop=1;jettySize=auto;html=1;exitX=0.5;exitY=0;exitDx=0;exitDy=0;entryX=0;entryY=0.6;entryDx=0;entryDy=0;entryPerimeter=0;" edge="1" parent="1" source="uGKKmcF0VZXlykleHp-U-34" target="uGKKmcF0VZXlykleHp-U-3">
          <mxGeometry relative="1" as="geometry" />
        </mxCell>
        <mxCell id="uGKKmcF0VZXlykleHp-U-38" style="edgeStyle=orthogonalEdgeStyle;rounded=0;orthogonalLoop=1;jettySize=auto;html=1;exitX=0.5;exitY=0;exitDx=0;exitDy=0;entryX=0.308;entryY=1;entryDx=0;entryDy=0;entryPerimeter=0;" edge="1" parent="1" source="uGKKmcF0VZXlykleHp-U-33" target="uGKKmcF0VZXlykleHp-U-3">
          <mxGeometry relative="1" as="geometry" />
        </mxCell>
        <mxCell id="uGKKmcF0VZXlykleHp-U-42" style="edgeStyle=orthogonalEdgeStyle;rounded=0;orthogonalLoop=1;jettySize=auto;html=1;entryX=0.75;entryY=0;entryDx=0;entryDy=0;" edge="1" parent="1" source="uGKKmcF0VZXlykleHp-U-40" target="uGKKmcF0VZXlykleHp-U-4">
          <mxGeometry relative="1" as="geometry" />
        </mxCell>
        <mxCell id="uGKKmcF0VZXlykleHp-U-40" value="identificador" style="ellipse;whiteSpace=wrap;html=1;" vertex="1" parent="1">
          <mxGeometry x="396" y="30" width="90" height="50" as="geometry" />
        </mxCell>
        <mxCell id="uGKKmcF0VZXlykleHp-U-43" style="edgeStyle=orthogonalEdgeStyle;rounded=0;orthogonalLoop=1;jettySize=auto;html=1;entryX=0.25;entryY=0;entryDx=0;entryDy=0;" edge="1" parent="1" source="uGKKmcF0VZXlykleHp-U-41" target="uGKKmcF0VZXlykleHp-U-4">
          <mxGeometry relative="1" as="geometry" />
        </mxCell>
        <mxCell id="uGKKmcF0VZXlykleHp-U-41" value="identificador_usuario" style="ellipse;whiteSpace=wrap;html=1;" vertex="1" parent="1">
          <mxGeometry x="289" y="30" width="90" height="50" as="geometry" />
        </mxCell>
        <mxCell id="uGKKmcF0VZXlykleHp-U-44" value="fecha_inicio_sesion" style="ellipse;whiteSpace=wrap;html=1;" vertex="1" parent="1">
          <mxGeometry x="170" width="90" height="50" as="geometry" />
        </mxCell>
        <mxCell id="uGKKmcF0VZXlykleHp-U-45" style="edgeStyle=orthogonalEdgeStyle;rounded=0;orthogonalLoop=1;jettySize=auto;html=1;entryX=0.025;entryY=0.338;entryDx=0;entryDy=0;entryPerimeter=0;" edge="1" parent="1" source="uGKKmcF0VZXlykleHp-U-44" target="uGKKmcF0VZXlykleHp-U-4">
          <mxGeometry relative="1" as="geometry" />
        </mxCell>
        <mxCell id="uGKKmcF0VZXlykleHp-U-47" style="edgeStyle=orthogonalEdgeStyle;rounded=0;orthogonalLoop=1;jettySize=auto;html=1;" edge="1" parent="1" source="uGKKmcF0VZXlykleHp-U-46" target="uGKKmcF0VZXlykleHp-U-4">
          <mxGeometry relative="1" as="geometry" />
        </mxCell>
        <mxCell id="uGKKmcF0VZXlykleHp-U-46" value="fecha_fin_sesion" style="ellipse;whiteSpace=wrap;html=1;" vertex="1" parent="1">
          <mxGeometry x="170" y="110" width="90" height="50" as="geometry" />
        </mxCell>
      </root>
    </mxGraphModel>
  </diagram>
</mxfile>
